<svg width="380" height="380" viewBox="0 0 380 380" fill="none" xmlns="http://www.w3.org/2000/svg" baseProfile="tiny-ps" version="1.2">
<title>Meetme logo</title>
<path d="M134.195 56.129H98.7805V133.548H134.195V56.129Z" fill="white"/>
<path d="M282.293 53.0323H246.878V130.452H282.293V53.0323Z" fill="white"/>
<path d="M329.512 153.161H53.7073V338.968H329.512V153.161Z" fill="white"/>
<path d="M55.2402 321.571V156.143H314.471V321.571H55.2402ZM125.939 119.5C125.939 122.935 123.362 125.607 120.048 125.607H108.264C104.951 125.607 102.373 122.935 102.373 119.5V64.5357C102.373 61.1004 104.951 58.4285 108.264 58.4285H120.048C123.362 58.4285 125.939 61.1004 125.939 64.5357V119.5ZM267.338 119.5C267.338 122.935 264.761 125.607 261.446 125.607H249.663C246.349 125.607 243.772 122.935 243.772 119.5V64.5357C243.772 61.1004 246.349 58.4285 249.663 58.4285H261.446C264.761 58.4285 267.338 61.1004 267.338 64.5357V119.5ZM338.037 107.285C338.037 93.9263 327.359 82.8571 314.471 82.8571H290.904V64.5357C290.904 47.741 277.648 34 261.446 34H249.663C233.462 34 220.205 47.741 220.205 64.5357V82.8571H149.506V64.5357C149.506 47.741 136.25 34 120.048 34H108.264C92.0628 34 78.8066 47.741 78.8066 64.5357V82.8571H55.2402C42.3523 82.8571 31.6738 93.9263 31.6738 107.285V321.571C31.6738 334.931 42.3523 346 55.2402 346H314.471C327.359 346 338.037 334.931 338.037 321.571V107.285Z" fill="#1386EB"/>
<path d="M241.793 171C252.954 171 262.913 173.23 271.67 177.689C280.599 182.148 287.553 188.755 292.533 197.508C297.684 206.262 300.259 216.832 300.259 229.219V309.735H271.155V233.431C271.155 221.209 267.979 211.877 261.625 205.436C255.272 198.83 246.601 195.526 235.612 195.526C224.622 195.526 215.865 198.83 209.34 205.436C202.987 211.877 199.811 221.209 199.811 233.431V309.735H170.706V233.431C170.706 221.209 167.53 211.877 161.177 205.436C154.823 198.83 146.152 195.526 135.163 195.526C124.174 195.526 115.417 198.83 108.892 205.436C102.539 211.877 99.3619 221.209 99.3619 233.431V309.735H70V173.23H99.3619V188.837C104.17 183.222 110.265 178.845 117.649 175.707C125.032 172.569 132.931 171 141.344 171C152.677 171 162.808 173.312 171.737 177.937C180.665 182.561 187.534 189.25 192.341 198.004C196.634 189.746 203.331 183.222 212.431 178.432C221.532 173.477 231.319 171 241.793 171Z" fill="#505050"/>
</svg>
