<?xml version="1.0" encoding="UTF-8"?>
<svg xmlns="http://www.w3.org/2000/svg" version="1.1" viewBox="0 0 595.28 841.89">
  <defs>
    <style>
      .cls-1 {
        fill: #fff;
      }
    </style>
  </defs>
  <!-- Generator: Adobe Illustrator 28.7.1, SVG Export Plug-In . SVG Version: 1.2.0 Build 142)  -->
  <g>
    <g id="Layer_1">
      <g>
        <path class="cls-1" d="M9,145.89h578v550H9V145.89ZM370.13,266.66c12.08,7.99,21.79,17.44,30.07,28.36,12.71,16.77,20.81,35.55,23.93,56.43.72,4.82,4.87,7.92,9.55,7.47,4.63-.44,7.78-3.78,7.3-8.9-.49-5.22-1.53-10.46-2.94-15.53-12.55-45.22-40.47-77.08-83.53-95.7-15.36-6.65-31.56-10.28-48.13-10.63-12.18-.26-24.43,1.67-36.6,3.07-4.08.47-7.44,2.84-7.78,7.71-.51,7.31,4.51,10.74,13.3,8.8,23.84-5.24,47-2.64,69.77,5.62,3.57,1.3,5.13,3.43,6.02,6.95,5.36,21.31,6.62,42.81,4.05,64.64-3.01,25.58-11.71,49.05-25.31,70.79-2.54,4.07-5.37,7.96-7.77,12.11-2.04,3.52-.82,6.82,1.91,9.43,2.75,2.63,6.24,3.62,9.5,1.41,2.37-1.61,4.38-3.98,6.03-6.37,17.94-26.05,29.12-54.63,32.78-86.2,2.28-19.63,1.49-39.04-2.15-59.48ZM353.33,484.35c-13.05,6.54-27.83,10.52-43.28,11.53-18.51,1.22-36.66-.81-54.14-7.61-5.52-2.15-10.25.05-11.87,4.75-1.7,4.94.39,9.2,5.93,11.33,23.58,9.08,48.04,11.08,72.78,7.32,26.2-3.98,49.7-14.78,69.83-32.13,20.79-17.92,35.76-39.88,43.69-66.37,1.43-4.78-1.15-9.48-5.82-10.92-4.11-1.26-8.64,1.14-10.34,5.53-.42,1.07-.68,2.2-1.06,3.29-7.99,22.98-21.4,42.2-40.32,57.48-1.61,1.3-4.41,2.54-6.18,2.06-33.81-9.18-62.59-26.66-85.87-52.95-11.73-13.24-20.92-28.12-28.43-44.12-1.1-2.33-3.82-4.53-6.29-5.43-3.24-1.18-7.33-.25-8.51,3.24-1.06,3.11-1.33,7.37-.03,10.27,14.67,32.77,36.74,59.63,66.89,79.16,13.8,8.94,28.87,15.91,43.01,23.58ZM174.7,360.93c.77-4.84,1.39-9.72,2.35-14.52,5.74-28.85,19.94-52.75,42.42-71.69,4.92-4.15,6.26-9.72,2.93-13.83-3.27-4.03-8.74-4.25-13.62.2-6.27,5.71-12.75,11.39-18,17.98-33.63,42.26-41.9,89.21-24.69,140.44,5.93,17.67,15.93,33.04,28.09,47.06,3.12,3.59,7.06,4.72,11.15,3.05,3.88-1.59,5.72-5.32,4.58-9.48-.66-2.41-2.34-4.72-4.05-6.64-15.81-17.79-25.27-38.62-29.64-61.86-.67-3.57-.7-6.9,2.65-9.93,11.73-10.62,24.01-20.4,37.97-27.99,21.93-11.92,45.2-19.43,70.21-20.71,10.58-.54,21.22-.04,31.84-.05,5.26,0,8.77-3.13,9.03-7.93.24-4.43-3.43-8.59-8.2-9.08-20.14-2.09-40.09-.8-59.86,3.5-31.48,6.85-59.41,20.91-85.13,41.48ZM477.78,588.57c1.31-.42,2.25-.68,3.16-1.02,7.92-2.97,12.15-9.22,11.62-17.09-.59-8.76-5.34-15.07-14.13-15.92-10.22-.99-20.6-.5-30.9-.33-.84.01-2.34,2.53-2.35,3.89-.16,19.31-.12,38.63-.07,57.94,0,1.23.54,2.45.83,3.67.53-.05,1.05-.1,1.58-.14v-31.51c9.13,0,17.41-.12,25.68.14,1.12.03,2.58,1.76,3.21,3.03,4.1,8.28,8,16.67,12,25,.63,1.32,1.49,2.53,2.25,3.79.51-.28,1.02-.56,1.54-.84-4.78-10.15-9.56-20.29-14.41-30.6ZM312.05,586.53c0,9.31-.11,18.63.11,27.94.04,1.52,1.62,4.33,2.41,4.31,8.73-.26,17.76.29,26.09-1.84,14.46-3.7,20.12-15.38,20.77-29.23.62-13.32-5.35-27.95-21.71-32.18-7.38-1.91-15.47-1.01-23.23-1.57-3.6-.26-4.57,1.24-4.51,4.64.18,9.31.06,18.62.06,27.94ZM221.02,587.55c0,6.14.05,11.27-.04,16.4-.02.9-.46,1.91-.98,2.67-5.47,8.02-17.81,12.91-27.2,10.85-15.21-3.34-24.17-13.87-25.17-29.61-1.39-21.82,19.43-38.37,39-30.75,4.35,1.69,8.14,4.83,12.74,7.63-.53-1.27-.68-2.48-1.36-3.1-6.22-5.79-13.74-9.14-22.14-8.51-19.85,1.48-31.01,16.72-30.64,33.91.47,21.75,18.74,36.56,39.12,32,7.7-1.72,14.85-5.65,17.78-12.36,2.58-5.9,1.34-13.48,1.78-20.26h-24.55c0,.38-.02.75-.03,1.13h21.67ZM94.85,619.09c.63.3,1.25.59,1.88.89,2.49-5.27,5.29-10.41,7.38-15.83,1.77-4.6,4.11-6.65,9.45-6.3,8.96.58,18.01.47,26.99.02,4.14-.21,5.81,1.5,7.26,4.83,2.53,5.84,5.37,11.54,8.09,17.3l1.78-.85c-10.24-22.06-20.48-44.13-30.72-66.19-.47.03-.94.05-1.41.08-10.22,22.02-20.45,44.03-30.67,66.05ZM294.93,620c.58-.28,1.17-.56,1.75-.84-10.24-22.07-20.49-44.14-30.73-66.21-.47.03-.94.06-1.41.09-10.22,22.01-20.44,44.03-30.66,66.04.63.3,1.26.59,1.89.89,2.77-5.87,5.74-11.66,8.24-17.65,1.33-3.19,2.94-4.53,6.59-4.43,9.83.29,19.67.29,29.5,0,3.62-.11,5.18,1.23,6.51,4.38,2.53,6.01,5.53,11.83,8.34,17.72ZM426.94,620.03l1.77-.85c-10.25-22.08-20.51-44.16-30.76-66.23-.48.05-.96.11-1.43.16-10.2,21.99-20.4,43.98-30.6,65.97.64.3,1.28.61,1.91.91,2.83-6.06,5.81-12.05,8.41-18.21,1.22-2.89,2.82-3.91,5.97-3.84,9.66.21,19.34.31,29-.03,4.09-.14,6.19,1.14,7.71,4.9,2.38,5.87,5.33,11.5,8.03,17.23ZM70.88,555.91v63.62c.68,0,1.35,0,2.03-.01v-63.49c4.62,0,8.28,0,11.94,0s7.24,0,10.86,0l-.09-1.29h-47.5c0,.39,0,.78,0,1.17h22.76ZM524.9,555.87v63.7c.68,0,1.35-.01,2.03-.02v-63.52c4.62,0,8.27,0,11.93,0s7.27,0,10.91,0c-.03-.44-.05-.88-.08-1.32h-47.5c0,.38,0,.77,0,1.15h22.72Z"/>
        <path d="M370.13,266.66c3.64,20.44,4.43,39.85,2.15,59.48-3.66,31.57-14.85,60.15-32.78,86.2-1.65,2.39-3.66,4.77-6.03,6.37-3.27,2.22-6.76,1.23-9.5-1.41-2.73-2.61-3.95-5.91-1.91-9.43,2.4-4.14,5.23-8.04,7.77-12.11,13.6-21.74,22.3-45.21,25.31-70.79,2.57-21.83,1.31-43.33-4.05-64.64-.88-3.52-2.45-5.65-6.02-6.95-22.77-8.26-45.93-10.86-69.77-5.62-8.8,1.93-13.81-1.49-13.3-8.8.34-4.88,3.7-7.24,7.78-7.71,12.17-1.4,24.42-3.33,36.6-3.07,16.57.35,32.76,3.98,48.13,10.63,43.06,18.62,70.98,50.48,83.53,95.7,1.4,5.06,2.45,10.3,2.94,15.53.48,5.12-2.67,8.46-7.3,8.9-4.68.45-8.83-2.65-9.55-7.47-3.12-20.88-11.22-39.66-23.93-56.43-8.28-10.92-18-20.37-30.07-28.36Z"/>
        <path d="M353.33,484.35c-14.14-7.67-29.21-14.64-43.01-23.58-30.15-19.53-52.22-46.39-66.89-79.16-1.3-2.9-1.03-7.16.03-10.27,1.18-3.48,5.27-4.42,8.51-3.24,2.47.9,5.2,3.1,6.29,5.43,7.51,16,16.7,30.88,28.43,44.12,23.28,26.29,52.06,43.77,85.87,52.95,1.77.48,4.56-.75,6.18-2.06,18.92-15.28,32.32-34.5,40.32-57.48.38-1.09.64-2.22,1.06-3.29,1.7-4.39,6.23-6.8,10.34-5.53,4.67,1.44,7.25,6.14,5.82,10.92-7.93,26.48-22.9,48.44-43.69,66.37-20.13,17.35-43.63,28.15-69.83,32.13-24.74,3.76-49.2,1.76-72.78-7.32-5.54-2.13-7.63-6.39-5.93-11.33,1.62-4.7,6.34-6.9,11.87-4.75,17.48,6.81,35.63,8.83,54.14,7.61,15.45-1.02,30.23-4.99,43.28-11.53Z"/>
        <path d="M174.7,360.93c25.73-20.56,53.65-34.62,85.13-41.48,19.76-4.3,39.72-5.59,59.86-3.5,4.77.49,8.44,4.65,8.2,9.08-.26,4.8-3.76,7.92-9.03,7.93-10.61.01-21.25-.49-31.84.05-25.01,1.28-48.27,8.8-70.21,20.71-13.96,7.58-26.23,17.37-37.97,27.99-3.35,3.03-3.32,6.36-2.65,9.93,4.37,23.24,13.83,44.06,29.64,61.86,1.71,1.92,3.39,4.23,4.05,6.64,1.14,4.16-.7,7.9-4.58,9.48-4.09,1.68-8.04.54-11.15-3.05-12.16-14.03-22.16-29.4-28.09-47.06-17.2-51.24-8.94-98.18,24.69-140.44,5.25-6.6,11.73-12.27,18-17.98,4.88-4.45,10.35-4.24,13.62-.2,3.33,4.11,2,9.68-2.93,13.83-22.47,18.94-36.67,42.84-42.42,71.69-.96,4.81-1.57,9.68-2.35,14.52Z"/>
        <path d="M477.78,588.57c4.85,10.31,9.63,20.45,14.41,30.6-.51.28-1.02.56-1.54.84-.76-1.26-1.61-2.47-2.25-3.79-4.01-8.33-7.9-16.71-12-25-.63-1.27-2.09-2.99-3.21-3.03-8.27-.26-16.55-.14-25.68-.14v31.51c-.53.05-1.05.1-1.58.14-.29-1.22-.82-2.45-.83-3.67-.05-19.31-.09-38.63.07-57.94.01-1.36,1.51-3.87,2.35-3.89,10.3-.17,20.68-.66,30.9.33,8.8.85,13.54,7.16,14.13,15.92.53,7.88-3.7,14.12-11.62,17.09-.91.34-1.85.6-3.16,1.02ZM447.99,586c9.3,0,18.26-.44,27.17.12,9.03.57,14.35-6.62,14.89-12.17.94-9.61-3.75-16.99-12.48-17.66-9.7-.75-19.49-.17-29.58-.17v29.88Z"/>
        <path d="M312.05,586.53c0-9.31.11-18.63-.06-27.94-.06-3.4.91-4.9,4.51-4.64,7.76.56,15.85-.33,23.23,1.57,16.36,4.23,22.33,18.86,21.71,32.18-.65,13.86-6.31,25.53-20.77,29.23-8.32,2.13-17.36,1.57-26.09,1.84-.8.02-2.38-2.79-2.41-4.31-.23-9.31-.11-18.62-.11-27.94ZM315.11,556.22v61.37c8.42-.7,16.59-.22,24.11-2.23,16.48-4.39,22.08-20.71,19.35-35.52-2.49-13.5-10.96-21.69-24.64-23.49-6.02-.79-12.23-.13-18.82-.13Z"/>
        <path d="M221.02,587.55h-21.67c0-.38.02-.75.03-1.13h24.55c-.44,6.78.8,14.36-1.78,20.26-2.93,6.71-10.08,10.64-17.78,12.36-20.38,4.56-38.65-10.25-39.12-32-.37-17.19,10.79-32.43,30.64-33.91,8.4-.63,15.91,2.73,22.14,8.51.68.63.82,1.83,1.36,3.1-4.59-2.8-8.38-5.93-12.74-7.63-19.57-7.62-40.39,8.93-39,30.75,1,15.74,9.95,26.27,25.17,29.61,9.39,2.06,21.73-2.84,27.2-10.85.52-.77.96-1.77.98-2.67.09-5.13.04-10.25.04-16.4Z"/>
        <path d="M94.85,619.09c10.22-22.02,20.45-44.03,30.67-66.05.47-.03.94-.05,1.41-.08,10.24,22.06,20.48,44.13,30.72,66.19l-1.78.85c-2.71-5.76-5.55-11.46-8.09-17.3-1.45-3.33-3.11-5.04-7.26-4.83-8.98.45-18.02.56-26.99-.02-5.34-.35-7.67,1.7-9.45,6.3-2.09,5.42-4.89,10.57-7.38,15.83-.63-.3-1.25-.59-1.88-.89ZM108.19,595.72h36.15c-6.03-13.02-11.84-25.56-18.12-39.1-6.24,13.53-11.99,25.99-18.04,39.1Z"/>
        <path d="M294.93,620c-2.81-5.9-5.81-11.71-8.34-17.72-1.32-3.15-2.89-4.48-6.51-4.38-9.83.3-19.67.29-29.5,0-3.64-.11-5.26,1.23-6.59,4.43-2.49,5.99-5.46,11.78-8.24,17.65-.63-.3-1.26-.59-1.89-.89,10.22-22.01,20.44-44.03,30.66-66.04.47-.03.94-.06,1.41-.09,10.24,22.07,20.49,44.14,30.73,66.21-.58.28-1.17.56-1.75.84ZM283.4,595.78c-6.14-13.24-11.91-25.7-18.16-39.17-6.23,13.55-12.01,26.11-18.02,39.17h36.19Z"/>
        <path d="M426.94,620.03c-2.71-5.73-5.65-11.37-8.03-17.23-1.52-3.76-3.63-5.04-7.71-4.9-9.66.34-19.33.24-29,.03-3.15-.07-4.75.96-5.97,3.84-2.6,6.16-5.58,12.15-8.41,18.21-.64-.3-1.28-.61-1.91-.91,10.2-21.99,20.4-43.98,30.6-65.97.48-.05.96-.11,1.43-.16,10.25,22.08,20.51,44.16,30.76,66.23l-1.77.85ZM397.28,556.61c-6.21,13.46-12,26.02-18,39.02h36.06c-6.02-13.01-11.8-25.5-18.06-39.02Z"/>
        <path d="M70.88,555.91h-22.76c0-.39,0-.78,0-1.17h47.5l.09,1.29c-3.62,0-7.24,0-10.86,0s-7.32,0-11.94,0v63.49c-.68,0-1.35,0-2.03.01v-63.62Z"/>
        <path d="M524.9,555.87h-22.72c0-.38,0-.77,0-1.15h47.5c.03.44.05.88.08,1.32-3.64,0-7.27,0-10.91,0s-7.31,0-11.93,0v63.52c-.68,0-1.35.01-2.03.02v-63.7Z"/>
        <path class="cls-1" d="M447.99,586v-29.88c10.09,0,19.89-.58,29.58.17,8.74.67,13.42,8.05,12.48,17.66-.54,5.55-5.86,12.74-14.89,12.17-8.91-.56-17.88-.12-27.17-.12Z"/>
        <path class="cls-1" d="M315.11,556.22c6.59,0,12.8-.66,18.82.13,13.68,1.8,22.15,9.99,24.64,23.49,2.73,14.81-2.87,31.13-19.35,35.52-7.51,2-15.69,1.53-24.11,2.23v-61.37Z"/>
        <path class="cls-1" d="M108.19,595.72c6.05-13.11,11.79-25.57,18.04-39.1,6.28,13.55,12.08,26.08,18.12,39.1h-36.15Z"/>
        <path class="cls-1" d="M283.4,595.78h-36.19c6.01-13.06,11.79-25.62,18.02-39.17,6.25,13.47,12.02,25.93,18.16,39.17Z"/>
        <path class="cls-1" d="M397.28,556.61c6.26,13.52,12.04,26.02,18.06,39.02h-36.06c6-13,11.79-25.56,18-39.02Z"/>
      </g>
    </g>
  </g>
</svg>